<mxfile host="app.diagrams.net" modified="2022-11-11T20:25:03.056Z" agent="5.0 (Windows NT 10.0; Win64; x64) AppleWebKit/537.36 (KHTML, like Gecko) Chrome/107.0.0.0 Safari/537.36" etag="dKi-_BjTh4PD5KzrpGZV" version="20.5.3" type="github">
  <diagram id="h8L1CahdER4FugjXQOyy" name="P치gina-1">
    <mxGraphModel dx="868" dy="488" grid="1" gridSize="10" guides="1" tooltips="1" connect="1" arrows="1" fold="1" page="1" pageScale="1" pageWidth="827" pageHeight="1169" math="0" shadow="0">
      <root>
        <mxCell id="0" />
        <mxCell id="1" parent="0" />
        <mxCell id="arFCidcQbcLjhU-n3AOF-6" value="" style="rounded=0;whiteSpace=wrap;html=1;" vertex="1" parent="1">
          <mxGeometry x="270" y="20" width="350" height="770" as="geometry" />
        </mxCell>
        <mxCell id="arFCidcQbcLjhU-n3AOF-5" style="edgeStyle=orthogonalEdgeStyle;rounded=0;orthogonalLoop=1;jettySize=auto;html=1;endArrow=block;endFill=0;" edge="1" parent="1" source="arFCidcQbcLjhU-n3AOF-1">
          <mxGeometry relative="1" as="geometry">
            <mxPoint x="160" y="410" as="targetPoint" />
            <Array as="points">
              <mxPoint x="120" y="580" />
              <mxPoint x="120" y="410" />
            </Array>
          </mxGeometry>
        </mxCell>
        <mxCell id="arFCidcQbcLjhU-n3AOF-23" style="edgeStyle=orthogonalEdgeStyle;rounded=0;orthogonalLoop=1;jettySize=auto;html=1;entryX=0;entryY=0.5;entryDx=0;entryDy=0;endArrow=classic;endFill=1;" edge="1" parent="1" source="arFCidcQbcLjhU-n3AOF-1" target="arFCidcQbcLjhU-n3AOF-12">
          <mxGeometry relative="1" as="geometry" />
        </mxCell>
        <mxCell id="arFCidcQbcLjhU-n3AOF-24" style="edgeStyle=orthogonalEdgeStyle;rounded=0;orthogonalLoop=1;jettySize=auto;html=1;entryX=0;entryY=0.5;entryDx=0;entryDy=0;endArrow=classicThin;endFill=1;" edge="1" parent="1" source="arFCidcQbcLjhU-n3AOF-1" target="arFCidcQbcLjhU-n3AOF-13">
          <mxGeometry relative="1" as="geometry" />
        </mxCell>
        <mxCell id="arFCidcQbcLjhU-n3AOF-1" value="Chofer" style="shape=umlActor;verticalLabelPosition=bottom;verticalAlign=top;html=1;outlineConnect=0;" vertex="1" parent="1">
          <mxGeometry x="170" y="550" width="30" height="60" as="geometry" />
        </mxCell>
        <mxCell id="arFCidcQbcLjhU-n3AOF-21" style="edgeStyle=orthogonalEdgeStyle;rounded=0;orthogonalLoop=1;jettySize=auto;html=1;endArrow=classic;endFill=1;" edge="1" parent="1" source="arFCidcQbcLjhU-n3AOF-2" target="arFCidcQbcLjhU-n3AOF-11">
          <mxGeometry relative="1" as="geometry" />
        </mxCell>
        <mxCell id="arFCidcQbcLjhU-n3AOF-22" style="edgeStyle=orthogonalEdgeStyle;rounded=0;orthogonalLoop=1;jettySize=auto;html=1;entryX=0;entryY=0.5;entryDx=0;entryDy=0;endArrow=none;endFill=0;" edge="1" parent="1" source="arFCidcQbcLjhU-n3AOF-2" target="arFCidcQbcLjhU-n3AOF-8">
          <mxGeometry relative="1" as="geometry" />
        </mxCell>
        <mxCell id="arFCidcQbcLjhU-n3AOF-2" value="Viajante" style="shape=umlActor;verticalLabelPosition=bottom;verticalAlign=top;html=1;outlineConnect=0;" vertex="1" parent="1">
          <mxGeometry x="170" y="380" width="30" height="60" as="geometry" />
        </mxCell>
        <mxCell id="arFCidcQbcLjhU-n3AOF-17" style="edgeStyle=orthogonalEdgeStyle;rounded=0;orthogonalLoop=1;jettySize=auto;html=1;entryX=0;entryY=0.5;entryDx=0;entryDy=0;endArrow=classicThin;endFill=1;" edge="1" parent="1" source="arFCidcQbcLjhU-n3AOF-3" target="arFCidcQbcLjhU-n3AOF-14">
          <mxGeometry relative="1" as="geometry" />
        </mxCell>
        <mxCell id="arFCidcQbcLjhU-n3AOF-18" style="edgeStyle=orthogonalEdgeStyle;rounded=0;orthogonalLoop=1;jettySize=auto;html=1;entryX=0.014;entryY=0.414;entryDx=0;entryDy=0;entryPerimeter=0;endArrow=classic;endFill=1;" edge="1" parent="1" source="arFCidcQbcLjhU-n3AOF-3" target="arFCidcQbcLjhU-n3AOF-7">
          <mxGeometry relative="1" as="geometry" />
        </mxCell>
        <mxCell id="arFCidcQbcLjhU-n3AOF-19" style="edgeStyle=orthogonalEdgeStyle;rounded=0;orthogonalLoop=1;jettySize=auto;html=1;entryX=0;entryY=0.5;entryDx=0;entryDy=0;endArrow=classic;endFill=1;" edge="1" parent="1" source="arFCidcQbcLjhU-n3AOF-3" target="arFCidcQbcLjhU-n3AOF-9">
          <mxGeometry relative="1" as="geometry" />
        </mxCell>
        <mxCell id="arFCidcQbcLjhU-n3AOF-20" style="edgeStyle=orthogonalEdgeStyle;rounded=0;orthogonalLoop=1;jettySize=auto;html=1;entryX=0;entryY=0.5;entryDx=0;entryDy=0;endArrow=classic;endFill=1;" edge="1" parent="1" source="arFCidcQbcLjhU-n3AOF-3" target="arFCidcQbcLjhU-n3AOF-10">
          <mxGeometry relative="1" as="geometry" />
        </mxCell>
        <mxCell id="arFCidcQbcLjhU-n3AOF-3" value="Persona registrada" style="shape=umlActor;verticalLabelPosition=bottom;verticalAlign=top;html=1;outlineConnect=0;" vertex="1" parent="1">
          <mxGeometry x="170" y="220" width="30" height="60" as="geometry" />
        </mxCell>
        <mxCell id="arFCidcQbcLjhU-n3AOF-16" style="edgeStyle=orthogonalEdgeStyle;rounded=0;orthogonalLoop=1;jettySize=auto;html=1;entryX=0;entryY=0.5;entryDx=0;entryDy=0;endArrow=classic;endFill=1;" edge="1" parent="1" source="arFCidcQbcLjhU-n3AOF-4" target="arFCidcQbcLjhU-n3AOF-15">
          <mxGeometry relative="1" as="geometry" />
        </mxCell>
        <mxCell id="arFCidcQbcLjhU-n3AOF-4" value="Persona no registrada" style="shape=umlActor;verticalLabelPosition=bottom;verticalAlign=top;html=1;outlineConnect=0;" vertex="1" parent="1">
          <mxGeometry x="170" y="50" width="30" height="60" as="geometry" />
        </mxCell>
        <mxCell id="arFCidcQbcLjhU-n3AOF-7" value="Cerrar sesi칩n" style="ellipse;whiteSpace=wrap;html=1;" vertex="1" parent="1">
          <mxGeometry x="375" y="190" width="140" height="70" as="geometry" />
        </mxCell>
        <mxCell id="arFCidcQbcLjhU-n3AOF-8" value="Calificar viajante" style="ellipse;whiteSpace=wrap;html=1;" vertex="1" parent="1">
          <mxGeometry x="390" y="520" width="140" height="70" as="geometry" />
        </mxCell>
        <mxCell id="arFCidcQbcLjhU-n3AOF-9" value="Publicar viaje" style="ellipse;whiteSpace=wrap;html=1;" vertex="1" parent="1">
          <mxGeometry x="380" y="280" width="140" height="70" as="geometry" />
        </mxCell>
        <mxCell id="arFCidcQbcLjhU-n3AOF-10" value="Conocer opini칩n" style="ellipse;whiteSpace=wrap;html=1;" vertex="1" parent="1">
          <mxGeometry x="390" y="360" width="140" height="70" as="geometry" />
        </mxCell>
        <mxCell id="arFCidcQbcLjhU-n3AOF-11" value="Postularse a viaje" style="ellipse;whiteSpace=wrap;html=1;" vertex="1" parent="1">
          <mxGeometry x="390" y="440" width="140" height="70" as="geometry" />
        </mxCell>
        <mxCell id="arFCidcQbcLjhU-n3AOF-27" style="edgeStyle=orthogonalEdgeStyle;rounded=0;orthogonalLoop=1;jettySize=auto;html=1;entryX=1;entryY=0.5;entryDx=0;entryDy=0;startArrow=none;startFill=0;endArrow=classic;endFill=1;" edge="1" parent="1" source="arFCidcQbcLjhU-n3AOF-12" target="arFCidcQbcLjhU-n3AOF-9">
          <mxGeometry relative="1" as="geometry">
            <Array as="points">
              <mxPoint x="560" y="635" />
              <mxPoint x="560" y="315" />
            </Array>
          </mxGeometry>
        </mxCell>
        <mxCell id="arFCidcQbcLjhU-n3AOF-28" value="&amp;lt;extends&amp;gt;" style="edgeLabel;html=1;align=center;verticalAlign=middle;resizable=0;points=[];" vertex="1" connectable="0" parent="arFCidcQbcLjhU-n3AOF-27">
          <mxGeometry x="0.5436" y="1" relative="1" as="geometry">
            <mxPoint as="offset" />
          </mxGeometry>
        </mxCell>
        <mxCell id="arFCidcQbcLjhU-n3AOF-12" value="Seleccionar viajante" style="ellipse;whiteSpace=wrap;html=1;" vertex="1" parent="1">
          <mxGeometry x="390" y="600" width="140" height="70" as="geometry" />
        </mxCell>
        <mxCell id="arFCidcQbcLjhU-n3AOF-25" style="edgeStyle=orthogonalEdgeStyle;rounded=0;orthogonalLoop=1;jettySize=auto;html=1;entryX=1;entryY=0.5;entryDx=0;entryDy=0;endArrow=none;endFill=0;startArrow=classic;startFill=1;" edge="1" parent="1" source="arFCidcQbcLjhU-n3AOF-13" target="arFCidcQbcLjhU-n3AOF-8">
          <mxGeometry relative="1" as="geometry">
            <Array as="points">
              <mxPoint x="600" y="725" />
              <mxPoint x="600" y="555" />
            </Array>
          </mxGeometry>
        </mxCell>
        <mxCell id="arFCidcQbcLjhU-n3AOF-26" value="&amp;lt;extends&amp;gt;" style="edgeLabel;html=1;align=center;verticalAlign=middle;resizable=0;points=[];" vertex="1" connectable="0" parent="arFCidcQbcLjhU-n3AOF-25">
          <mxGeometry x="0.1419" y="-1" relative="1" as="geometry">
            <mxPoint as="offset" />
          </mxGeometry>
        </mxCell>
        <mxCell id="arFCidcQbcLjhU-n3AOF-13" value="Terminar viaje" style="ellipse;whiteSpace=wrap;html=1;" vertex="1" parent="1">
          <mxGeometry x="390" y="690" width="140" height="70" as="geometry" />
        </mxCell>
        <mxCell id="arFCidcQbcLjhU-n3AOF-14" value="Iniciar sesi칩n" style="ellipse;whiteSpace=wrap;html=1;" vertex="1" parent="1">
          <mxGeometry x="370" y="110" width="140" height="70" as="geometry" />
        </mxCell>
        <mxCell id="arFCidcQbcLjhU-n3AOF-15" value="Realizar registro" style="ellipse;whiteSpace=wrap;html=1;" vertex="1" parent="1">
          <mxGeometry x="370" y="30" width="140" height="70" as="geometry" />
        </mxCell>
      </root>
    </mxGraphModel>
  </diagram>
</mxfile>
